<svg width="26" height="26" viewBox="0 0 26 26" fill="none" xmlns="http://www.w3.org/2000/svg">
<g id="vuesax/outline/global">
<g id="global">
<path id="Vector" d="M12.9998 24.6458C6.57567 24.6458 1.354 19.4242 1.354 13C1.354 6.57583 6.57567 1.35416 12.9998 1.35416C19.424 1.35416 24.6457 6.57583 24.6457 13C24.6457 19.4242 19.424 24.6458 12.9998 24.6458ZM12.9998 2.97916C7.47484 2.97916 2.979 7.475 2.979 13C2.979 18.525 7.47484 23.0208 12.9998 23.0208C18.5248 23.0208 23.0207 18.525 23.0207 13C23.0207 7.475 18.5248 2.97916 12.9998 2.97916Z" fill="white"/>
<path id="Vector_2" d="M9.74977 23.5625H8.66643C8.22227 23.5625 7.85393 23.1942 7.85393 22.75C7.85393 22.3058 8.2006 21.9483 8.64477 21.9375C6.94393 16.1308 6.94393 9.86917 8.64477 4.0625C8.2006 4.05167 7.85393 3.69417 7.85393 3.25C7.85393 2.80583 8.22227 2.4375 8.66643 2.4375H9.74977C10.0098 2.4375 10.2589 2.5675 10.4106 2.77333C10.5623 2.99 10.6056 3.26083 10.5189 3.51C8.48227 9.63083 8.48227 16.3692 10.5189 22.5008C10.6056 22.75 10.5623 23.0208 10.4106 23.2375C10.2589 23.4325 10.0098 23.5625 9.74977 23.5625Z" fill="white"/>
<path id="Vector_3" d="M16.2501 23.5625C16.1634 23.5625 16.0768 23.5517 15.9901 23.5192C15.5676 23.3783 15.3293 22.9125 15.4809 22.49C17.5176 16.3692 17.5176 9.63083 15.4809 3.49917C15.3401 3.07667 15.5676 2.61083 15.9901 2.47C16.4234 2.32917 16.8784 2.55667 17.0193 2.97917C19.1751 9.43583 19.1751 16.5425 17.0193 22.9883C16.9109 23.3458 16.5859 23.5625 16.2501 23.5625Z" fill="white"/>
<path id="Vector_4" d="M13 18.6333C9.9775 18.6333 6.96583 18.2108 4.0625 17.355C4.05167 17.7883 3.69417 18.1458 3.25 18.1458C2.80583 18.1458 2.4375 17.7775 2.4375 17.3333V16.25C2.4375 15.99 2.5675 15.7408 2.77333 15.5892C2.99 15.4375 3.26083 15.3942 3.51 15.4808C9.63083 17.5175 16.38 17.5175 22.5008 15.4808C22.75 15.3942 23.0208 15.4375 23.2375 15.5892C23.4542 15.7408 23.5733 15.99 23.5733 16.25V17.3333C23.5733 17.7775 23.205 18.1458 22.7608 18.1458C22.3167 18.1458 21.9592 17.7992 21.9483 17.355C19.0342 18.2108 16.0225 18.6333 13 18.6333Z" fill="white"/>
<path id="Vector_5" d="M22.7501 10.5625C22.6634 10.5625 22.5768 10.5517 22.4901 10.5192C16.3693 8.4825 9.62009 8.4825 3.49926 10.5192C3.06592 10.66 2.61092 10.4325 2.47009 10.01C2.34009 9.57667 2.56759 9.12167 2.99009 8.98084C9.44676 6.825 16.5534 6.825 22.9993 8.98084C23.4218 9.12167 23.6601 9.5875 23.5084 10.01C23.4109 10.3458 23.0859 10.5625 22.7501 10.5625Z" fill="white"/>
</g>
</g>
</svg>
