<svg width="26" height="26" viewBox="0 0 26 26" fill="none" xmlns="http://www.w3.org/2000/svg">
<g id="triangle-exclamation">
<path id="Icon (Stroke)" fill-rule="evenodd" clip-rule="evenodd" d="M11.7703 3.91456C12.5519 3.5604 13.4481 3.5604 14.2297 3.91456C14.7648 4.15704 15.1557 4.60802 15.5071 5.12318C15.857 5.63624 16.2429 6.3309 16.7205 7.19051L21.7023 16.1577C22.156 16.9744 22.524 17.6367 22.7643 18.1812C23.0068 18.7306 23.1762 19.2794 23.1101 19.8456C23.013 20.6774 22.5702 21.4299 21.8902 21.9188C21.4274 22.2516 20.8653 22.37 20.2673 22.4248C19.6746 22.4792 18.917 22.4792 17.9827 22.4792H8.01732C7.08301 22.4792 6.32537 22.4792 5.73269 22.4248C5.13468 22.37 4.57264 22.2516 4.10979 21.9188C3.42983 21.4299 2.98705 20.6774 2.8899 19.8456C2.82376 19.2794 2.99325 18.7306 3.23572 18.1812C3.47604 17.6367 3.84398 16.9744 4.29772 16.1577L9.27951 7.1905C9.75706 6.3309 10.143 5.63624 10.4929 5.12318C10.8443 4.60802 11.2352 4.15704 11.7703 3.91456ZM13.5589 5.39468C13.2037 5.2337 12.7963 5.2337 12.4411 5.39468C12.3241 5.44768 12.1417 5.58966 11.8354 6.03881C11.5325 6.48284 11.1823 7.1115 10.6798 8.016L5.73816 16.911C5.25974 17.7722 4.92896 18.3693 4.72237 18.8373C4.51443 19.3085 4.48908 19.53 4.50392 19.6571C4.54809 20.0352 4.74935 20.3772 5.05842 20.5995C5.16234 20.6742 5.36827 20.7596 5.8811 20.8066C6.3906 20.8534 7.07319 20.8542 8.05832 20.8542H17.9417C18.9268 20.8542 19.6094 20.8534 20.1189 20.8066C20.6317 20.7596 20.8377 20.6742 20.9416 20.5995C21.2507 20.3772 21.4519 20.0352 21.4961 19.6571C21.5109 19.53 21.4856 19.3085 21.2776 18.8373C21.071 18.3693 20.7403 17.7722 20.2618 16.911L15.3202 8.01599C14.8177 7.11149 14.4675 6.48284 14.1646 6.03881C13.8583 5.58966 13.6759 5.44768 13.5589 5.39468ZM13 10.0208C13.4487 10.0208 13.8125 10.3846 13.8125 10.8333V15.1667C13.8125 15.6154 13.4487 15.9792 13 15.9792C12.5513 15.9792 12.1875 15.6154 12.1875 15.1667V10.8333C12.1875 10.3846 12.5513 10.0208 13 10.0208ZM12.1875 18.4167C12.1875 17.9679 12.5513 17.6042 13 17.6042H13.0108C13.4596 17.6042 13.8233 17.9679 13.8233 18.4167C13.8233 18.8654 13.4596 19.2292 13.0108 19.2292H13C12.5513 19.2292 12.1875 18.8654 12.1875 18.4167Z" fill="white"/>
</g>
</svg>
